REM MD5 74ff17788a76af5138aa420660e58f98
FILE "Best Horror Games Ever Demo (Europe, Australia).bin" BINARY
  TRACK 01 MODE2/2352
    INDEX 01 00:00:00
  TRACK 02 AUDIO
    INDEX 00 38:31:20
    INDEX 01 38:33:20
  TRACK 03 AUDIO
    INDEX 00 38:52:17
    INDEX 01 38:54:17
  TRACK 04 AUDIO
    INDEX 00 42:30:14
    INDEX 01 42:32:14
  TRACK 05 AUDIO
    INDEX 00 42:48:14
    INDEX 01 42:50:14
REM LEADOUT 45:51:46
